<?xml version="1.0" encoding="utf-8"?>
<!-- Generator: Adobe Illustrator 27.0.0, SVG Export Plug-In . SVG Version: 6.00 Build 0)  -->
<svg version="1.1" id="Layer_1" xmlns="http://www.w3.org/2000/svg" xmlns:xlink="http://www.w3.org/1999/xlink" x="0px" y="0px"
	 viewBox="0 0 512 512" style="enable-background:new 0 0 512 512;" xml:space="preserve">
<style type="text/css">
	.st0{fill:#B7B5B6;}
	.st1{fill:#231F20;}
	.st2{fill:#B09246;}
	.st3{fill:#FFFFFF;}
</style>
<g id="XMLID_1_">
	<polyline id="XMLID_3_" class="st0" points="271.01,365.83 210.97,365.83 151.92,322.07 159.07,293.45 96.09,293.45 35.91,250.81 
		69.01,115.73 0,61.3 291.07,61.3 273.81,131.72 337.36,131.72 398.94,174.78 388.56,216.72 512,216.72 489.7,307.48 465.43,307.48 
		449.02,374.53 408.2,374.53 405.11,385.61 382.39,385.61 366.4,450.7 250.11,450.7 271.01,365.83 	"/>
	<polyline id="XMLID_4_" class="st1" points="285.32,354.47 214.62,354.47 164.82,317.44 173.52,282.09 99.73,282.09 48.82,246.04 
		81.78,111.38 32.68,72.52 276.62,72.66 258.95,144.48 261.75,143.08 333.71,143.08 386.17,179.55 374.11,228.09 497.55,228.09 
		480.86,296.26 456.59,296.26 440.18,363.17 376.21,363.17 357.56,439.48 264.56,439.48 285.32,354.47 	"/>
	<polyline id="XMLID_5_" class="st2" points="355.88,227.38 300.05,227.38 308.46,193.58 246.6,193.58 265.82,208.73 242.39,303.97 
		281.11,303.97 291.77,261.33 326.7,261.33 307.34,245.9 474.69,245.9 466.83,278.3 355.59,278.3 374.95,293.45 370.18,312.81 
		434.01,312.81 426.15,345.21 362.19,345.21 343.53,421.52 287.42,421.52 311.55,323.19 286.86,336.52 220.65,336.52 185.02,310.15 
		200.17,248.85 170.71,265.12 105.07,265.12 68.03,238.89 100.86,104.78 81.5,89.49 160.75,89.49 125.55,232.71 163.7,232.71 
		195.12,104.78 175.76,89.49 255.02,89.49 233.28,178.01 266.1,160.89 328.1,160.89 365.83,187.27 355.88,227.38 	"/>
	<polyline id="XMLID_6_" class="st3" points="309.72,219.81 317.86,219.81 324.17,193.86 316.18,193.86 309.72,219.81 	"/>
	<polyline id="XMLID_7_" class="st3" points="221.91,192.46 193.58,307.2 200.31,312.11 228.79,197.79 269.89,176.32 337.08,176.32 
		325.72,168.47 267.92,168.47 221.91,192.46 	"/>
	<polyline id="XMLID_8_" class="st3" points="287.14,311.55 240.71,311.55 238.75,319.4 293.17,319.4 303.69,276.76 319.82,276.76 
		321.79,268.91 297.66,268.91 287.14,311.55 	"/>
	<polyline id="XMLID_9_" class="st3" points="122.04,248.14 175.76,248.14 210.83,104.92 243.38,104.92 245.34,97.07 197.65,97.07 
		203.68,101.84 169.59,240.29 124,240.29 122.04,248.14 	"/>
	<polyline id="XMLID_10_" class="st3" points="83.32,240.43 116.71,104.92 149.11,104.92 151.08,97.07 103.38,97.07 109.41,101.84 
		76.59,235.66 83.32,240.43 	"/>
	<path id="XMLID_11_" class="st3" d="M422.51,328.24c0.56-2.38,1.26-4.91,1.96-7.86c-10.38,0-41.24,0-55.97,0
		c-1.12,4.35-1.96,7.86-1.96,7.86S403.29,328.24,422.51,328.24"/>
	<polyline id="XMLID_12_" class="st3" points="465.15,253.48 329.22,253.48 335.25,258.24 296.96,413.95 304.96,413.95 
		342.55,261.33 463.18,261.33 465.15,253.48 	"/>
	<polyline id="XMLID_13_" class="st1" points="386.03,371.59 388.84,371.59 389.68,368.78 381.12,368.78 380.14,371.59 
		382.81,371.59 379.44,381.26 382.81,381.26 386.03,371.59 	"/>
	<polyline id="XMLID_14_" class="st1" points="385.47,381.26 388.7,381.26 392.21,374.11 392.21,374.11 392.63,381.26 
		393.89,381.26 399.36,374.11 399.5,374.11 397.96,381.26 401.18,381.26 403.57,368.78 400.34,368.78 395.29,375.51 395.01,368.78 
		391.93,368.78 385.47,381.26 	"/>
</g>
</svg>
